<svg width="1920" height="1080" viewBox="0 0 1920 1080" fill="none" xmlns="http://www.w3.org/2000/svg">
<g clip-path="url(#clip0_338_10)">
<path d="M1756.66 -102.825L1824.4 -63.6138V14.8087L1756.66 54.0199L1688.92 14.8087V-63.6138L1756.66 -102.825Z" fill="#7C70B0"/>
<path fill-rule="evenodd" clip-rule="evenodd" d="M1250.4 -99.9304L1185.28 -62.2331V13.4281L1250.4 51.1254L1315.53 13.4281V-62.2331L1250.4 -99.9304ZM1318.14 -63.6138L1250.4 -102.825L1182.67 -63.6138V14.8087L1250.4 54.02L1318.14 14.8087V-63.6138Z" fill="#7C70B0"/>
<path d="M1587.91 -102.825L1655.65 -63.6138V14.8087L1587.91 54.0199L1520.17 14.8087V-63.6138L1587.91 -102.825Z" fill="#7C70B0"/>
<path d="M1419.16 -102.825L1486.9 -63.6138V14.8087L1419.16 54.0199L1351.42 14.8087V-63.6138L1419.16 -102.825Z" fill="#7C70B0"/>
<path d="M1599 722.155L1666.73 761.366V839.789L1599 879L1531.26 839.789V761.366L1599 722.155Z" fill="#7C70B0"/>
<path d="M1092.74 722.155L1160.48 761.366V839.789L1092.74 879L1025 839.789V761.366L1092.74 722.155Z" fill="#443972"/>
<path d="M1430.24 722.155L1497.98 761.366V839.789L1430.24 879L1362.5 839.789V761.366L1430.24 722.155Z" fill="#7C70B0"/>
<path d="M1261.49 722.155L1329.23 761.366V839.789L1261.49 879L1193.75 839.789V761.366L1261.49 722.155Z" fill="#443972"/>
<path d="M1510.31 37.965L1578.05 77.1762V155.599L1510.31 194.81L1442.57 155.599V77.1762L1510.31 37.965Z" fill="#7C70B0"/>
<path d="M1847.81 37.965L1915.55 77.1762V155.599L1847.81 194.81L1780.08 155.599V77.1762L1847.81 37.965Z" fill="#7C70B0"/>
<path d="M1679.06 37.965L1746.8 77.1762V155.599L1679.06 194.81L1611.32 155.599V77.1762L1679.06 37.965Z" fill="#7C70B0"/>
<path d="M1682.76 581.365L1750.49 620.576V698.999L1682.76 738.21L1615.02 698.999V620.576L1682.76 581.365Z" fill="#FFC107"/>
<path d="M1514 581.365L1581.74 620.576V698.999L1514 738.21L1446.27 698.999V620.576L1514 581.365Z" fill="#7C70B0"/>
<path d="M1345.25 581.365L1412.99 620.576V698.999L1345.25 738.21L1277.51 698.999V620.576L1345.25 581.365Z" fill="#FFC107"/>
<path d="M1682.76 581.365L1750.5 620.576V698.999L1682.76 738.21L1615.02 698.999V620.576L1682.76 581.365Z" fill="#7C70B0"/>
<path fill-rule="evenodd" clip-rule="evenodd" d="M1176.5 584.26L1111.38 621.957V697.618L1176.5 735.315L1241.62 697.618V621.957L1176.5 584.26ZM1244.24 620.576L1176.5 581.365L1108.76 620.576V698.999L1176.5 738.21L1244.24 698.999V620.576Z" fill="#7C70B0"/>
<path d="M1341.56 37.965L1409.29 77.1762V155.599L1341.56 194.81L1273.82 155.599V77.1762L1341.56 37.965Z" fill="#443972"/>
<path d="M1345.25 581.365L1412.99 620.576V698.999L1345.25 738.21L1277.51 698.999V620.576L1345.25 581.365Z" fill="#7C70B0"/>
<path d="M1515 316L1583 355.25V433.75L1515 473L1447 433.75V355.25L1515 316Z" fill="#7C70B0"/>
<path fill-rule="evenodd" clip-rule="evenodd" d="M1346.5 318.898L1281.61 356.632V432.368L1346.5 470.102L1411.39 432.368V356.632L1346.5 318.898ZM1414 355.25L1346.5 316L1279 355.25V433.75L1346.5 473L1414 433.75V355.25Z" fill="#7C70B0"/>
<path d="M1177.5 316L1245 355.25V433.75L1177.5 473L1110 433.75V355.25L1177.5 316Z" fill="#7C70B0"/>
<path d="M1599 170.116L1666.73 209.327V287.749L1599 326.961L1531.26 287.749V209.327L1599 170.116Z" fill="#7C70B0"/>
<path fill-rule="evenodd" clip-rule="evenodd" d="M1092.74 173.01L1027.62 210.707V286.369L1092.74 324.066L1157.86 286.369V210.707L1092.74 173.01ZM1160.48 209.327L1092.74 170.116L1025 209.327V287.749L1092.74 326.961L1160.48 287.749V209.327Z" fill="#443972"/>
<path d="M1430.24 170.116L1497.98 209.327V287.749L1430.24 326.961L1362.5 287.749V209.327L1430.24 170.116Z" fill="#7C70B0"/>
<path fill-rule="evenodd" clip-rule="evenodd" d="M1261.49 173.01L1196.37 210.707V286.369L1261.49 324.066L1326.61 286.369V210.707L1261.49 173.01ZM1329.23 209.327L1261.49 170.116L1193.75 209.327V287.749L1261.49 326.961L1329.23 287.749V209.327Z" fill="#7C70B0"/>
<path d="M1767.75 445.521L1835.49 484.732V563.154L1767.75 602.366L1700.01 563.154V484.732L1767.75 445.521Z" fill="#7C70B0"/>
<path d="M1682.5 306L1750 345.25V423.75L1682.5 463L1615 423.75V345.25L1682.5 306Z" fill="#7C70B0"/>
<path d="M1515 316L1583 355.25V433.75L1515 473L1447 433.75V355.25L1515 316Z" fill="#7C70B0"/>
<path fill-rule="evenodd" clip-rule="evenodd" d="M1346.5 318.898L1281.61 356.632V432.368L1346.5 470.102L1411.39 432.368V356.632L1346.5 318.898ZM1414 355.25L1346.5 316L1279 355.25V433.75L1346.5 473L1414 433.75V355.25Z" fill="#7C70B0"/>
<path d="M1177.5 316L1245 355.25V433.75L1177.5 473L1110 433.75V355.25L1177.5 316Z" fill="#443972"/>
<path d="M1600 447L1668 486.25V564.75L1600 604L1532 564.75V486.25L1600 447Z" fill="#7C70B0"/>
<path d="M1434.5 450L1502 489.25V567.75L1434.5 607L1367 567.75V489.25L1434.5 450Z" fill="#443972"/>
<path d="M1682.5 306L1750 345.25V423.75L1682.5 463L1615 423.75V345.25L1682.5 306Z" fill="#7C70B0"/>
<path d="M1851.5 306L1919 345.25V423.75L1851.5 463L1784 423.75V345.25L1851.5 306Z" fill="#7C70B0"/>
<path d="M1851.5 581L1919 620.25V698.75L1851.5 738L1784 698.75V620.25L1851.5 581Z" fill="#7C70B0"/>
<path d="M1766.5 722L1834 761.25V839.75L1766.5 879L1699 839.75V761.25L1766.5 722Z" fill="#7C70B0"/>
<path d="M1925.5 722L1993 761.25V839.75L1925.5 879L1858 839.75V761.25L1925.5 722Z" fill="#7C70B0"/>
<path d="M1767.5 175L1835 214.25V292.75L1767.5 332L1700 292.75V214.25L1767.5 175Z" fill="#7C70B0"/>
<path d="M1936.5 175L2004 214.25V292.75L1936.5 332L1869 292.75V214.25L1936.5 175Z" fill="#7C70B0"/>
<path d="M1936.5 450L2004 489.25V567.75L1936.5 607L1869 567.75V489.25L1936.5 450Z" fill="#7C70B0"/>
<path d="M1913 -109L1981 -69.75V8.74999L1913 48L1845 8.74999V-69.75L1913 -109Z" fill="#7C70B0"/>
<path d="M1691.66 856.175L1759.4 895.386V973.809L1691.66 1013.02L1623.92 973.809V895.386L1691.66 856.175Z" fill="#7C70B0"/>
<path fill-rule="evenodd" clip-rule="evenodd" d="M1185.4 859.07L1120.28 896.767V972.428L1185.4 1010.13L1250.53 972.428V896.767L1185.4 859.07ZM1253.14 895.386L1185.4 856.175L1117.67 895.386V973.809L1185.4 1013.02L1253.14 973.809V895.386Z" fill="#7C70B0"/>
<path d="M1522.91 856.175L1590.65 895.386V973.809L1522.91 1013.02L1455.17 973.809V895.386L1522.91 856.175Z" fill="#7C70B0"/>
<path d="M1354.16 856.175L1421.9 895.386V973.809L1354.16 1013.02L1286.42 973.809V895.386L1354.16 856.175Z" fill="#7C70B0"/>
<path d="M1945.57 985.965L2013.3 1025.18V1103.6L1945.57 1142.81L1877.83 1103.6V1025.18L1945.57 985.965Z" fill="#7C70B0"/>
<path d="M1439.31 985.965L1507.05 1025.18V1103.6L1439.31 1142.81L1371.57 1103.6V1025.18L1439.31 985.965Z" fill="#7C70B0"/>
<path d="M1776.81 985.965L1844.55 1025.18V1103.6L1776.81 1142.81L1709.08 1103.6V1025.18L1776.81 985.965Z" fill="#7C70B0"/>
<path d="M1608.06 985.965L1675.8 1025.18V1103.6L1608.06 1142.81L1540.32 1103.6V1025.18L1608.06 985.965Z" fill="#7C70B0"/>
<path d="M1276.56 996.965L1344.29 1036.18V1114.6L1276.56 1153.81L1208.82 1114.6V1036.18L1276.56 996.965Z" fill="#443972"/>
<path d="M1852 850L1920 889.25V967.75L1852 1007L1784 967.75V889.25L1852 850Z" fill="#7C70B0"/>
</g>
<defs>
<clipPath id="clip0_338_10">
<rect width="1920" height="1080" fill="white"/>
</clipPath>
</defs>
</svg>
